PathFileType   4   (X/Y/Z)
DataRate  CameraRate  NumFrames  NumMarkers  Units  OrigDataRate  OrigDataStartFrame  OrigNumFrames  
  120.0      120.0        4         37         mm      120.0          76        151
Frame#      Time                    midhip                           hip_r                           hip_l                          knee_r                          knee_l                         ankle_r                         ankle_l                         midasis                          asis_r                          asis_l                          psis_r                          psis_l                    epicondLat_r                    epicondLat_l                    epicondMed_r                    epicondMed_l                  malleolusLat_r                  malleolusLat_l                 malleolusMedv_r                 malleolusMedv_l                    sternalnotch                  xyphoidprocess                            neck                           toe_r                           toe_l                     thighwand_r                     thighwand_l                     upperleg1_r                     upperleg1_l                     upperleg2_r                     upperleg2_l                     shankwand_r                     shankwand_l                     lowerleg1_r                     lowerleg1_l                   subclavicle_r                   subclavicle_l            
              X1          Y1          Z1          X2          Y2          Z2          X3          Y3          Z3          X4          Y4          Z4          X5          Y5          Z5          X6          Y6          Z6          X7          Y7          Z7          X8          Y8          Z8          X9          Y9          Z9          X10          Y10          Z10          X11          Y11          Z11          X12          Y12          Z12          X13          Y13          Z13          X14          Y14          Z14          X15          Y15          Z15          X16          Y16          Z16          X17          Y17          Z17          X18          Y18          Z18          X19          Y19          Z19          X20          Y20          Z20          X21          Y21          Z21          X22          Y22          Z22          X23          Y23          Z23          X24          Y24          Z24          X25          Y25          Z25          X26          Y26          Z26          X27          Y27          Z27          X28          Y28          Z28          X29          Y29          Z29          X30          Y30          Z30          X31          Y31          Z31          X32          Y32          Z32          X33          Y33          Z33          X34          Y34          Z34          X35          Y35          Z35          X36          Y36          Z36          X37          Y37          Z37          

	76	0.80833	-1701.503	753.590	266.983	-1711.367	752.184	323.539	-1691.639	754.997	210.426	-1621.834	413.349	338.465	-1821.964	424.662	209.836	-1576.168	64.709	331.825	-2016.490	113.087	204.463	-1667.783	826.498	274.055	-1671.614	829.870	383.863	-1663.952	823.125	164.246	-1851.086	856.281	302.315	-1842.835	853.502	253.097	-1595.856	422.052	398.072	-1810.775	405.400	151.706	-1609.442	418.522	274.580	-1796.161	410.142	278.125	-1582.860	63.354	368.698	-2021.833	117.300	168.603	-1570.243	59.603	298.857	-2020.662	116.030	237.922	-1684.407	1178.073	272.816	-1673.312	1076.871	264.019	-1794.107	1246.052	273.789	-1493.079	50.088	350.376	-1945.923	55.248	203.955	-1531.340	594.893	365.940	-1666.182	532.430	135.451	-1594.728	610.708	404.386	-1673.618	579.358	202.091	-1584.658	553.794	397.949	-1694.342	525.670	211.317	-1465.481	194.538	364.149	-1963.122	203.252	80.182	-1538.742	171.451	342.709	-1969.183	195.324	159.605	-1686.312	1174.363	329.790	-1677.375	1181.987	222.477
	77	0.81667	-1694.628	754.396	268.419	-1704.490	752.934	324.975	-1684.766	755.859	211.864	-1617.193	413.184	339.342	-1811.389	422.668	209.972	-1575.733	64.581	331.671	-2012.436	116.426	204.398	-1661.014	827.311	275.583	-1664.854	830.643	385.497	-1657.175	823.979	165.670	-1843.935	856.896	303.942	-1836.021	854.016	254.540	-1591.470	421.865	398.893	-1801.803	405.325	151.811	-1604.718	417.613	276.935	-1785.863	408.756	279.111	-1582.246	63.206	368.576	-2017.880	120.873	168.582	-1569.423	58.952	298.814	-2016.933	119.463	237.901	-1678.376	1179.006	274.592	-1666.979	1077.854	265.614	-1788.181	1246.565	275.944	-1492.695	49.323	350.299	-1943.627	55.736	204.156	-1525.274	594.317	367.094	-1657.556	533.280	136.641	-1588.574	610.385	405.344	-1666.148	580.061	203.369	-1579.029	553.793	399.377	-1685.900	526.093	212.554	-1463.308	193.094	363.769	-1958.077	206.439	80.140	-1536.644	170.505	342.350	-1964.463	198.415	159.894	-1680.081	1175.219	331.413	-1671.524	1183.005	224.389
	78	0.82500	-1687.813	755.213	269.867	-1697.695	753.667	326.417	-1677.932	756.758	213.317	-1612.481	413.322	340.158	-1802.020	424.115	210.007	-1575.359	64.503	331.530	-2007.881	119.823	204.367	-1654.278	828.129	277.164	-1658.151	831.363	387.220	-1650.405	824.894	167.109	-1836.804	857.537	305.641	-1829.240	854.573	256.045	-1587.447	421.635	399.704	-1792.497	405.265	151.761	-1600.025	417.941	277.810	-1778.221	408.382	276.864	-1581.763	63.099	368.452	-2013.493	124.540	168.611	-1569.309	58.989	298.621	-2012.300	122.934	237.910	-1671.942	1180.033	276.556	-1660.072	1078.968	267.214	-1782.441	1247.369	277.557	-1492.383	48.763	350.210	-1941.228	56.194	204.383	-1519.485	593.592	368.417	-1648.724	534.261	137.562	-1582.921	610.246	406.847	-1658.010	581.253	205.043	-1573.651	553.558	400.691	-1677.841	526.757	213.268	-1461.411	191.727	363.604	-1952.766	209.810	80.113	-1535.028	169.922	342.518	-1958.968	201.635	160.070	-1673.465	1176.076	333.021	-1665.258	1184.206	226.697
	79	0.83333	-1681.027	756.000	271.398	-1690.947	754.353	327.938	-1671.108	757.647	214.857	-1607.924	413.527	340.915	-1790.913	423.995	209.876	-1575.019	64.461	331.400	-2002.791	123.236	204.372	-1647.593	828.946	278.783	-1651.515	832.051	388.996	-1643.672	825.841	168.569	-1829.801	858.221	307.325	-1822.547	855.183	257.556	-1583.750	421.395	400.488	-1782.886	405.227	151.580	-1595.398	418.969	277.352	-1768.640	406.334	273.621	-1581.388	63.024	368.327	-2008.634	128.260	168.695	-1569.192	59.244	298.412	-2006.510	126.528	237.951	-1665.819	1181.027	278.318	-1653.826	1079.994	268.784	-1776.688	1248.430	279.188	-1492.128	48.379	350.095	-1938.698	56.626	204.633	-1513.995	592.769	369.836	-1639.721	535.373	138.231	-1577.459	610.017	408.452	-1650.206	582.181	206.274	-1568.407	552.939	401.656	-1669.287	527.298	213.320	-1459.759	190.442	363.656	-1947.163	213.343	80.129	-1533.467	169.606	342.794	-1952.704	204.736	159.707	-1667.399	1176.978	334.424	-1659.088	1185.283	228.828
